<svg version="1.2" xmlns="http://www.w3.org/2000/svg" viewBox="0 0 1200 900" width="1200" height="900">
	<title>why-us</title>
	<style>
		.s0 { fill: #039be5 } 
		.s1 { fill: none;stroke: #039be5;stroke-linecap: round;stroke-width: 18 } 
		.s2 { fill: none;stroke: #ff8183;stroke-linecap: round;stroke-width: 18 } 
	</style>
	<path id="Tracé_54" class="s0" d="m857.1 487.7c6.6 0 12.5-4 15-10 2.4-6 1.1-13-3.5-17.6-4.7-4.6-11.6-6-17.6-3.5-6.1 2.5-10 8.4-10 14.9 0 2.1 0.4 4.2 1.2 6.2 0.9 2 2 3.7 3.5 5.2 1.5 1.5 3.3 2.7 5.3 3.5 1.9 0.8 4 1.3 6.1 1.3z"/>
	<path id="Tracé_55" class="s1" d="m793.5 472.1h-189.6l-37.7 69.9-49.1-160.4-43.4 98.6h-148.3m396.4 139.8l-124.4 124.5c3.9 4.6 74.7 76 74.7 76l251.4-251.4 18.9-18.9c68.8-68.8 68.8-180.3 0-248.9l-2.6-2.6c-68.7-68.8-180.2-68.8-248.8 0l-18.9 18.9-18.9-18.9c-16.4-16.3-35.8-29.3-57.1-38.2-21.4-8.8-44.3-13.4-67.4-13.4-23.1 0-46 4.6-67.4 13.4-21.4 8.9-40.8 21.9-57.1 38.2l-2.6 2.6c-7.1 7-13.5 14.6-19.2 22.8-5.8 8.1-10.8 16.7-15.1 25.6-4.3 9-7.8 18.3-10.5 27.9-2.7 9.6-4.6 19.3-5.7 29.2"/>
	<path id="Tracé_56" class="s2" d="m530.8 161.3c-152 0-275.3 123.3-275.3 275.4q0 4.8 0.1 9.6 0.2 4.8 0.5 9.6 0.4 4.8 0.8 9.6 0.5 4.8 1.2 9.5"/>
	<path id="Tracé_57" class="s1" d="m733.3 146.1c-22.9-15.9-47.5-29.2-73.3-39.6-25.9-10.5-52.8-18-80.3-22.5-27.5-4.6-55.4-6-83.2-4.3-27.8 1.6-55.4 6.4-82.1 14.1"/>
	<path id="Ligne_4" class="s1" d="m140.7 379.6h49.3"/>
	<path id="Ligne_5" class="s1" d="m180 229l44.7 21"/>
	<path id="Ligne_6" class="s1" d="m271.8 119.4l31.7 37.8"/>
</svg>