<?xml version="1.0" encoding="UTF-8" standalone="no"?>
<!-- Created with Inkscape (http://www.inkscape.org/) -->

<svg
   xmlns:dc="http://purl.org/dc/elements/1.1/"
   xmlns:cc="http://creativecommons.org/ns#"
   xmlns:rdf="http://www.w3.org/1999/02/22-rdf-syntax-ns#"
   xmlns:svg="http://www.w3.org/2000/svg"
   xmlns="http://www.w3.org/2000/svg"
   xmlns:sodipodi="http://sodipodi.sourceforge.net/DTD/sodipodi-0.dtd"
   xmlns:inkscape="http://www.inkscape.org/namespaces/inkscape"
   version="1.1"
   id="svg2"
   xml:space="preserve"
   width="151.34673"
   height="130"
   viewBox="0 0 151.34672 130"
   sodipodi:docname="ISIS-logo-verti-Blanc.ai"
   inkscape:version="0.92.1 r15371"><metadata
     id="metadata8"><rdf:RDF><cc:Work
         rdf:about=""><dc:format>image/svg+xml</dc:format><dc:type
           rdf:resource="http://purl.org/dc/dcmitype/StillImage" /><dc:title></dc:title></cc:Work></rdf:RDF></metadata><defs
     id="defs6"><clipPath
       clipPathUnits="userSpaceOnUse"
       id="clipPath24"><path
         d="M 0,595.28 H 841.89 V 0 H 0 Z"
         id="path22"
         inkscape:connector-curvature="0" /></clipPath></defs><sodipodi:namedview
     pagecolor="#ffffff"
     bordercolor="#666666"
     borderopacity="1"
     objecttolerance="10"
     gridtolerance="10"
     guidetolerance="10"
     inkscape:pageopacity="0"
     inkscape:pageshadow="2"
     inkscape:window-width="1920"
     inkscape:window-height="968"
     id="namedview4"
     showgrid="false"
     inkscape:pagecheckerboard="true"
     fit-margin-top="0"
     fit-margin-left="0"
     fit-margin-right="0"
     fit-margin-bottom="0"
     inkscape:zoom="1.6820038"
     inkscape:cx="160.45548"
     inkscape:cy="68.795488"
     inkscape:window-x="0"
     inkscape:window-y="34"
     inkscape:window-maximized="1"
     inkscape:current-layer="g10" /><g
     id="g10"
     inkscape:groupmode="layer"
     inkscape:label="ISIS-logo-verti-Blanc"
     transform="matrix(1.3333333,0,0,-1.3333333,-481.99746,458.56453)"><g
       id="g4880"
       transform="matrix(0.95840995,0,0,0.95840995,15.034725,10.248762)"><path
         inkscape:connector-curvature="0"
         id="path12"
         style="fill:#ffffff;fill-opacity:1;fill-rule:nonzero;stroke:none"
         d="M 365.793,260.947 H 362.5 v 17.062 h 3.293 z" /><g
         transform="translate(380.7109,260.9465)"
         id="g14"><path
           inkscape:connector-curvature="0"
           id="path16"
           style="fill:#ffffff;fill-opacity:1;fill-rule:nonzero;stroke:none"
           d="m 0,0 h -3.305 l -5.414,10.887 -0.07,-0.012 V 0 h -3.305 v 17.062 h 3.305 l 5.414,-10.898 0.07,0.012 V 17.062 H 0 Z" /></g><g
         transform="translate(394.7617,263.1965)"
         id="g26"><path
           inkscape:connector-curvature="0"
           id="path28"
           style="fill:#ffffff;fill-opacity:1;fill-rule:nonzero;stroke:none"
           d="m 0,0 c -0.484,-0.68 -1.186,-1.266 -2.104,-1.758 -0.917,-0.492 -2.103,-0.738 -3.556,-0.738 -1.844,0 -3.322,0.537 -4.436,1.611 -1.113,1.074 -1.67,2.6 -1.67,4.576 v 5.18 c 0,1.969 0.541,3.492 1.623,4.57 1.082,1.079 2.514,1.618 4.295,1.618 1.86,0 3.262,-0.44 4.207,-1.319 0.946,-0.879 1.403,-2.131 1.371,-3.756 l -0.023,-0.07 h -3.105 c 0,0.891 -0.196,1.539 -0.586,1.945 -0.391,0.407 -0.981,0.61 -1.77,0.61 -0.851,0 -1.516,-0.297 -1.992,-0.891 C -8.223,10.984 -8.461,10.09 -8.461,8.895 V 3.691 c 0,-1.218 0.242,-2.125 0.727,-2.718 0.484,-0.594 1.175,-0.891 2.074,-0.891 0.64,0 1.144,0.076 1.512,0.229 0.367,0.152 0.648,0.353 0.843,0.603 V 4.359 H -5.906 V 6.645 H 0 Z" /></g><g
         transform="translate(402.4141,282.8137)"
         id="g30"><path
           inkscape:connector-curvature="0"
           id="path32"
           style="fill:#ffffff;fill-opacity:1;fill-rule:nonzero;stroke:none"
           d="M 0,0 H 3.68 L 3.715,-0.07 0.762,-3.117 h -2.86 z m 3.246,-14.332 h -5.215 v -4.957 h 6.246 v -2.578 h -9.55 v 17.062 h 9.527 v -2.59 h -6.223 v -4.359 h 5.215 z" /></g><g
         transform="translate(420.8828,260.9465)"
         id="g34"><path
           inkscape:connector-curvature="0"
           id="path36"
           style="fill:#ffffff;fill-opacity:1;fill-rule:nonzero;stroke:none"
           d="m 0,0 h -3.305 l -5.414,10.887 -0.07,-0.012 V 0 h -3.305 v 17.062 h 3.305 l 5.414,-10.898 0.07,0.012 V 17.062 H 0 Z" /></g><path
         inkscape:connector-curvature="0"
         id="path38"
         style="fill:#ffffff;fill-opacity:1;fill-rule:nonzero;stroke:none"
         d="m 426.988,260.947 h -3.293 v 17.062 h 3.293 z" /><g
         transform="translate(438.332,268.4817)"
         id="g40"><path
           inkscape:connector-curvature="0"
           id="path42"
           style="fill:#ffffff;fill-opacity:1;fill-rule:nonzero;stroke:none"
           d="M 0,0 H -5.215 V -4.957 H 1.031 V -7.535 H -8.52 V 9.527 H 1.008 V 6.937 H -5.215 V 2.578 H 0 Z" /></g><g
         transform="translate(453.3672,278.009)"
         id="g44"><path
           inkscape:connector-curvature="0"
           id="path46"
           style="fill:#ffffff;fill-opacity:1;fill-rule:nonzero;stroke:none"
           d="m 0,0 v -11.145 c 0,-1.937 -0.557,-3.449 -1.67,-4.535 -1.113,-1.086 -2.564,-1.629 -4.353,-1.629 -1.782,0 -3.227,0.545 -4.336,1.635 -1.11,1.09 -1.664,2.6 -1.664,4.529 V 0 h 3.293 v -11.145 c 0,-1.164 0.242,-2.052 0.726,-2.666 0.484,-0.613 1.145,-0.919 1.981,-0.919 0.851,0 1.517,0.304 1.998,0.914 0.48,0.609 0.72,1.5 0.72,2.671 V 0 Z" /></g><g
         transform="translate(459.168,270.3684)"
         id="g48"><path
           inkscape:connector-curvature="0"
           id="path50"
           style="fill:#ffffff;fill-opacity:1;fill-rule:nonzero;stroke:none"
           d="m 0,0 h 1.781 c 0.711,0 1.252,0.213 1.623,0.639 0.371,0.425 0.557,1.029 0.557,1.81 0,0.797 -0.184,1.43 -0.551,1.899 C 3.043,4.816 2.508,5.051 1.805,5.051 H 0 Z M 0,-2.578 V -9.422 H -3.305 V 7.629 h 5.11 C 3.5,7.629 4.834,7.187 5.807,6.305 6.779,5.422 7.266,4.191 7.266,2.613 7.266,1.73 7.061,0.965 6.65,0.316 6.24,-0.332 5.648,-0.848 4.875,-1.23 5.766,-1.527 6.406,-2.02 6.797,-2.707 7.187,-3.395 7.383,-4.254 7.383,-5.285 v -1.242 c 0,-0.477 0.054,-0.977 0.164,-1.5 0.109,-0.524 0.305,-0.907 0.586,-1.149 V -9.422 H 4.711 c -0.274,0.25 -0.447,0.658 -0.522,1.225 -0.074,0.566 -0.111,1.131 -0.111,1.693 v 1.195 c 0,0.868 -0.18,1.539 -0.539,2.016 -0.359,0.477 -0.875,0.715 -1.547,0.715 z" /></g><g
         transform="translate(476.6289,265.3762)"
         id="g52"><path
           inkscape:connector-curvature="0"
           id="path54"
           style="fill:#ffffff;fill-opacity:1;fill-rule:nonzero;stroke:none"
           d="m 0,0 c 0,0.68 -0.174,1.217 -0.521,1.611 -0.348,0.395 -0.971,0.78 -1.87,1.155 -1.75,0.617 -3.066,1.316 -3.949,2.097 -0.883,0.782 -1.324,1.875 -1.324,3.282 0,1.398 0.504,2.537 1.512,3.416 1.007,0.878 2.293,1.318 3.855,1.318 1.656,0 2.988,-0.469 3.996,-1.406 C 2.707,10.535 3.195,9.277 3.164,7.699 L 3.141,7.629 H -0.07 c 0,0.883 -0.198,1.553 -0.592,2.01 -0.395,0.457 -0.959,0.685 -1.693,0.685 -0.633,0 -1.125,-0.209 -1.477,-0.627 -0.352,-0.418 -0.527,-0.939 -0.527,-1.564 0,-0.578 0.199,-1.055 0.597,-1.43 C -3.363,6.328 -2.68,5.918 -1.711,5.473 -0.062,4.926 1.186,4.234 2.033,3.398 2.881,2.563 3.305,1.437 3.305,0.023 c 0,-1.46 -0.496,-2.609 -1.489,-3.445 -0.992,-0.836 -2.308,-1.254 -3.949,-1.254 -1.617,0 -3,0.451 -4.148,1.354 -1.149,0.902 -1.703,2.275 -1.664,4.119 l 0.023,0.07 h 3.223 c 0,-1.07 0.217,-1.84 0.65,-2.308 0.434,-0.469 1.072,-0.704 1.916,-0.704 0.711,0 1.244,0.196 1.6,0.586 C -0.178,-1.168 0,-0.648 0,0" /></g><g
         transform="translate(367.2461,249.195)"
         id="g56"><path
           inkscape:connector-curvature="0"
           id="path58"
           style="fill:#ffffff;fill-opacity:1;fill-rule:nonzero;stroke:none"
           d="m 0,0 0.012,-0.035 c 0.015,-0.914 -0.218,-1.599 -0.7,-2.054 -0.483,-0.455 -1.171,-0.682 -2.066,-0.682 -0.918,0 -1.646,0.27 -2.185,0.811 -0.54,0.541 -0.809,1.31 -0.809,2.306 v 2.531 c 0,0.992 0.261,1.762 0.782,2.309 0.522,0.546 1.226,0.82 2.112,0.82 0.934,0 1.651,-0.227 2.151,-0.68 0.5,-0.453 0.742,-1.139 0.726,-2.056 L 0.012,3.234 h -1.606 c 0,0.547 -0.096,0.93 -0.29,1.149 -0.193,0.219 -0.516,0.328 -0.97,0.328 -0.414,0 -0.724,-0.149 -0.931,-0.448 C -3.992,3.964 -4.096,3.506 -4.096,2.889 V 0.346 c 0,-0.621 0.112,-1.081 0.334,-1.38 0.223,-0.299 0.559,-0.448 1.008,-0.448 0.41,0 0.705,0.108 0.885,0.325 C -1.689,-0.94 -1.6,-0.555 -1.6,0 Z" /></g><g
         transform="translate(370.2871,249.6931)"
         id="g60"><path
           inkscape:connector-curvature="0"
           id="path62"
           style="fill:#ffffff;fill-opacity:1;fill-rule:nonzero;stroke:none"
           d="M 0,0 H 1.453 L 0.744,2.707 H 0.709 Z M 1.793,-1.301 H -0.34 l -0.48,-1.845 h -1.723 l 2.42,8.531 h 1.711 l 2.42,-8.531 H 2.279 Z" /></g><g
         transform="translate(378.7422,248.7614)"
         id="g64"><path
           inkscape:connector-curvature="0"
           id="path66"
           style="fill:#ffffff;fill-opacity:1;fill-rule:nonzero;stroke:none"
           d="m 0,0 c 0,0.34 -0.087,0.608 -0.261,0.806 -0.174,0.197 -0.485,0.389 -0.934,0.577 -0.875,0.308 -1.534,0.658 -1.975,1.049 -0.441,0.39 -0.662,0.937 -0.662,1.64 0,0.699 0.252,1.269 0.756,1.708 0.504,0.44 1.146,0.659 1.928,0.659 0.828,0 1.494,-0.234 1.998,-0.703 C 1.354,5.268 1.598,4.639 1.582,3.85 L 1.57,3.814 h -1.605 c 0,0.442 -0.099,0.777 -0.296,1.005 -0.197,0.229 -0.48,0.343 -0.847,0.343 -0.316,0 -0.562,-0.104 -0.738,-0.313 C -2.092,4.64 -2.18,4.379 -2.18,4.066 -2.18,3.777 -2.08,3.539 -1.881,3.352 -1.682,3.164 -1.34,2.959 -0.855,2.736 -0.031,2.463 0.593,2.117 1.017,1.699 1.44,1.281 1.652,0.719 1.652,0.012 c 0,-0.731 -0.248,-1.305 -0.744,-1.723 -0.496,-0.418 -1.154,-0.627 -1.974,-0.627 -0.809,0 -1.5,0.226 -2.075,0.677 -0.574,0.451 -0.851,1.138 -0.832,2.059 l 0.012,0.036 h 1.611 c 0,-0.536 0.109,-0.92 0.326,-1.155 0.216,-0.234 0.536,-0.351 0.958,-0.351 0.355,0 0.622,0.097 0.799,0.293 C -0.089,-0.584 0,-0.324 0,0" /></g><g
         transform="translate(386.5996,253.7829)"
         id="g68"><path
           inkscape:connector-curvature="0"
           id="path70"
           style="fill:#ffffff;fill-opacity:1;fill-rule:nonzero;stroke:none"
           d="M 0,0 H -2.004 V -7.236 H -3.662 V 0 H -5.613 V 1.295 H 0 Z" /></g><g
         transform="translate(389.0605,251.2575)"
         id="g72"><path
           inkscape:connector-curvature="0"
           id="path74"
           style="fill:#ffffff;fill-opacity:1;fill-rule:nonzero;stroke:none"
           d="M 0,0 H 0.891 C 1.246,0 1.517,0.106 1.702,0.319 1.888,0.532 1.98,0.834 1.98,1.225 1.98,1.623 1.889,1.939 1.705,2.174 1.521,2.408 1.254,2.525 0.902,2.525 H 0 Z M 0,-1.289 V -4.711 H -1.652 V 3.814 H 0.902 C 1.75,3.814 2.417,3.594 2.903,3.152 3.39,2.711 3.633,2.096 3.633,1.307 3.633,0.865 3.53,0.482 3.325,0.158 3.12,-0.166 2.824,-0.424 2.438,-0.615 2.883,-0.764 3.203,-1.01 3.398,-1.354 3.594,-1.697 3.691,-2.127 3.691,-2.643 v -0.621 c 0,-0.238 0.028,-0.488 0.082,-0.75 0.055,-0.261 0.153,-0.453 0.293,-0.574 V -4.711 H 2.355 c -0.136,0.125 -0.223,0.329 -0.26,0.612 -0.037,0.284 -0.056,0.566 -0.056,0.847 v 0.598 c 0,0.433 -0.09,0.769 -0.269,1.008 -0.18,0.238 -0.438,0.357 -0.774,0.357 z" /></g><g
         transform="translate(398.2891,250.3142)"
         id="g76"><path
           inkscape:connector-curvature="0"
           id="path78"
           style="fill:#ffffff;fill-opacity:1;fill-rule:nonzero;stroke:none"
           d="M 0,0 H -2.607 V -2.479 H 0.516 V -3.768 H -4.26 V 4.764 H 0.504 V 3.469 H -2.607 V 1.289 H 0 Z" /></g><g
         transform="translate(403.6152,248.7614)"
         id="g80"><path
           inkscape:connector-curvature="0"
           id="path82"
           style="fill:#ffffff;fill-opacity:1;fill-rule:nonzero;stroke:none"
           d="m 0,0 c 0,0.34 -0.087,0.608 -0.261,0.806 -0.174,0.197 -0.485,0.389 -0.934,0.577 -0.875,0.308 -1.534,0.658 -1.975,1.049 -0.441,0.39 -0.662,0.937 -0.662,1.64 0,0.699 0.252,1.269 0.756,1.708 0.504,0.44 1.146,0.659 1.928,0.659 0.828,0 1.494,-0.234 1.998,-0.703 C 1.354,5.268 1.598,4.639 1.582,3.85 L 1.57,3.814 h -1.605 c 0,0.442 -0.099,0.777 -0.296,1.005 -0.197,0.229 -0.48,0.343 -0.847,0.343 -0.316,0 -0.562,-0.104 -0.738,-0.313 C -2.092,4.64 -2.18,4.379 -2.18,4.066 -2.18,3.777 -2.08,3.539 -1.881,3.352 -1.682,3.164 -1.34,2.959 -0.855,2.736 -0.031,2.463 0.593,2.117 1.017,1.699 1.44,1.281 1.652,0.719 1.652,0.012 c 0,-0.731 -0.248,-1.305 -0.744,-1.723 -0.496,-0.418 -1.154,-0.627 -1.974,-0.627 -0.809,0 -1.5,0.226 -2.075,0.677 -0.574,0.451 -0.851,1.138 -0.832,2.059 l 0.012,0.036 h 1.611 c 0,-0.536 0.109,-0.92 0.326,-1.155 0.216,-0.234 0.536,-0.351 0.958,-0.351 0.355,0 0.622,0.097 0.799,0.293 C -0.089,-0.584 0,-0.324 0,0" /></g><g
         transform="translate(384.5525,318.3184)"
         id="g84"><path
           inkscape:connector-curvature="0"
           id="path86"
           style="fill:#ffffff;fill-opacity:1;fill-rule:nonzero;stroke:none"
           d="m 0,0 c 1.942,-1.533 4.414,-2.947 7.408,-4.246 l 7.324,7.324 C 11.97,4.121 9.934,5.121 8.646,6.077 7.01,7.29 6.192,8.843 6.192,10.735 c 0,2.07 0.754,3.77 2.262,5.099 1.508,1.329 3.643,1.994 6.403,1.994 3.041,0 5.406,-0.747 7.093,-2.243 0.97,-0.86 1.652,-1.94 2.064,-3.227 l 7.654,7.653 c -0.522,0.577 -1.093,1.129 -1.724,1.651 -3.771,3.118 -8.749,4.677 -14.934,4.677 -5.827,0 -10.62,-1.45 -14.377,-4.351 C -3.125,19.086 -5.003,15.348 -5.003,10.774 -5.003,6.223 -3.335,2.632 0,0" /></g><g
         transform="translate(412.5783,314.5035)"
         id="g88"><path
           inkscape:connector-curvature="0"
           id="path90"
           style="fill:#ffffff;fill-opacity:1;fill-rule:nonzero;stroke:none"
           d="m 0,0 c -2.292,1.992 -5.336,3.709 -9.103,5.164 l -7.432,-7.431 c 0.017,-0.004 0.032,-0.01 0.049,-0.015 3.757,-1.15 6.383,-2.376 7.879,-3.68 1.495,-1.303 2.243,-3.029 2.243,-5.176 0,-2.096 -0.786,-3.77 -2.358,-5.022 -1.572,-1.253 -3.853,-1.879 -6.844,-1.879 -3.323,0 -5.955,0.779 -7.897,2.339 -1.227,0.983 -2.063,2.315 -2.516,3.991 l -7.837,-7.837 c 0.793,-0.916 1.718,-1.743 2.78,-2.48 4.307,-2.991 9.464,-4.486 15.47,-4.486 6.135,0 11.067,1.38 14.799,4.141 3.732,2.76 5.598,6.53 5.598,11.31 C 4.831,-6.486 3.221,-2.799 0,0" /></g><g
         transform="translate(368.2922,348.1544)"
         id="g92"><path
           inkscape:connector-curvature="0"
           id="path94"
           style="fill:#ffffff;fill-opacity:1;fill-rule:nonzero;stroke:none"
           d="M 0,0 H -5.09 V -5.09 Z" /></g><g
         transform="translate(382.7922,305.0711)"
         id="g96"><path
           inkscape:connector-curvature="0"
           id="path98"
           style="fill:#ffffff;fill-opacity:1;fill-rule:nonzero;stroke:none"
           d="M 0,0 H -5.09 V -5.09 Z" /></g><g
         transform="translate(412.2021,328.2311)"
         id="g100"><path
           inkscape:connector-curvature="0"
           id="path102"
           style="fill:#ffffff;fill-opacity:1;fill-rule:nonzero;stroke:none"
           d="M 0,0 H 5.09 V 5.09 Z" /></g><g
         transform="translate(469.9521,328.2311)"
         id="g104"><path
           inkscape:connector-curvature="0"
           id="path106"
           style="fill:#ffffff;fill-opacity:1;fill-rule:nonzero;stroke:none"
           d="M 0,0 H 5.09 V 5.09 Z" /></g><g
         transform="translate(440.5422,305.0711)"
         id="g108"><path
           inkscape:connector-curvature="0"
           id="path110"
           style="fill:#ffffff;fill-opacity:1;fill-rule:nonzero;stroke:none"
           d="M 0,0 H -5.09 V -5.09 Z" /></g><g
         transform="translate(426.1256,348.1544)"
         id="g112"><path
           inkscape:connector-curvature="0"
           id="path114"
           style="fill:#ffffff;fill-opacity:1;fill-rule:nonzero;stroke:none"
           d="M 0,0 H -5.09 V -5.09 Z" /></g><g
         transform="translate(363.727,337.6736)"
         id="g116"><path
           inkscape:connector-curvature="0"
           id="path118"
           style="fill:#ffffff;fill-opacity:1;fill-rule:nonzero;stroke:none"
           d="M 0,0 V -47.45 H 10.428 V 10.428 Z" /></g><g
         transform="translate(442.3025,318.3184)"
         id="g120"><path
           inkscape:connector-curvature="0"
           id="path122"
           style="fill:#ffffff;fill-opacity:1;fill-rule:nonzero;stroke:none"
           d="m 0,0 c 1.942,-1.533 4.414,-2.947 7.408,-4.246 l 7.324,7.324 C 11.97,4.121 9.934,5.121 8.646,6.077 7.01,7.29 6.192,8.843 6.192,10.735 c 0,2.07 0.754,3.77 2.262,5.099 1.508,1.329 3.643,1.994 6.403,1.994 3.041,0 5.406,-0.747 7.093,-2.243 0.97,-0.86 1.652,-1.94 2.064,-3.227 l 7.654,7.653 c -0.522,0.577 -1.093,1.129 -1.724,1.651 -3.771,3.118 -8.749,4.677 -14.934,4.677 -5.827,0 -10.62,-1.45 -14.377,-4.351 C -3.125,19.086 -5.003,15.348 -5.003,10.774 -5.003,6.223 -3.335,2.632 0,0" /></g><g
         transform="translate(470.3283,314.5035)"
         id="g124"><path
           inkscape:connector-curvature="0"
           id="path126"
           style="fill:#ffffff;fill-opacity:1;fill-rule:nonzero;stroke:none"
           d="m 0,0 c -2.292,1.992 -5.336,3.709 -9.103,5.164 l -7.432,-7.431 c 0.017,-0.004 0.032,-0.01 0.049,-0.015 3.757,-1.15 6.383,-2.376 7.879,-3.68 1.495,-1.303 2.243,-3.029 2.243,-5.176 0,-2.096 -0.786,-3.77 -2.358,-5.022 -1.572,-1.253 -3.853,-1.879 -6.844,-1.879 -3.323,0 -5.955,0.779 -7.897,2.339 -1.227,0.983 -2.063,2.315 -2.516,3.991 l -7.837,-7.837 c 0.793,-0.916 1.718,-1.743 2.78,-2.48 4.307,-2.991 9.464,-4.486 15.47,-4.486 6.135,0 11.067,1.38 14.799,4.141 3.732,2.76 5.598,6.53 5.598,11.31 C 4.831,-6.486 3.221,-2.799 0,0" /></g><g
         transform="translate(421.477,337.6736)"
         id="g128"><path
           inkscape:connector-curvature="0"
           id="path130"
           style="fill:#ffffff;fill-opacity:1;fill-rule:nonzero;stroke:none"
           d="M 0,0 V -47.45 H 10.428 V 10.428 Z" /></g></g></g></svg>